<?xml version="1.0" encoding="utf-8"?>
<!-- Generator: Adobe Illustrator 24.2.0, SVG Export Plug-In . SVG Version: 6.00 Build 0)  -->
<svg version="1.1" id="ae_x5F_cc_x5F_app_x5F_RGB.svg"
	 xmlns="http://www.w3.org/2000/svg" xmlns:xlink="http://www.w3.org/1999/xlink" x="0px" y="0px" viewBox="0 0 40 39"
	 style="enable-background:new 0 0 40 39;" xml:space="preserve">
<style type="text/css">
	.st0{fill-rule:evenodd;clip-rule:evenodd;fill:#1F0040;}
	.st1{fill-rule:evenodd;clip-rule:evenodd;fill:#D291FF;}
</style>
<g>
	<rect x="1.6" y="1.6" class="st0" width="36.7" height="35.7"/>
</g>
<g>
	<path class="st1" d="M0,0v39h40V0C40,0,0,0,0,0z M1.6,1.7h36.7v35.7H1.6V1.7z"/>
</g>
<path class="st1" d="M11.6,23.5l-1.3,5c0,0.1-0.1,0.2-0.2,0.2H7.6c-0.2,0-0.2-0.1-0.2-0.2l4.7-16.6c0.1-0.3,0.1-0.5,0.2-1.4
	c0-0.1,0.1-0.2,0.1-0.2h3.5c0.1,0,0.2,0,0.2,0.2l5.3,17.9c0,0.1,0,0.2-0.1,0.2h-2.7c-0.1,0-0.2-0.1-0.2-0.2l-1.4-5L11.6,23.5
	L11.6,23.5z M16.3,20.8c-0.5-1.9-1.6-5.9-2-7.9l0,0c-0.4,2-1.3,5.2-1.9,7.8L16.3,20.8z M25.2,22.5c0,2.3,1.1,3.8,3.6,3.8
	c1,0,1.8-0.1,2.7-0.5c0.1-0.1,0.2,0,0.2,0.1v2c0,0.2-0.1,0.2-0.2,0.3c-0.9,0.4-2,0.6-3.4,0.6c-4.4,0-6-3.2-6-6.9
	c0-3.9,2-7.1,5.6-7.1s4.9,3.1,4.9,5.5c0,0.8-0.1,1.5-0.1,1.8c0,0.1-0.1,0.2-0.2,0.2c-0.3,0.1-1.3,0.1-2.8,0.1L25.2,22.5L25.2,22.5z
	 M28.6,20.1c0.9,0,1.2,0,1.2,0c0-0.1,0-0.2,0-0.3c0-0.9-0.4-2.6-2.2-2.6c-1.6,0-2.3,1.4-2.4,2.9H28.6z"/>
</svg>
