<?xml version="1.0" encoding="utf-8"?>
<!-- Generator: Adobe Illustrator 24.2.0, SVG Export Plug-In . SVG Version: 6.00 Build 0)  -->
<svg version="1.1" id="ai_x5F_cc_x5F_app_x5F_RGB.svg"
	 xmlns="http://www.w3.org/2000/svg" xmlns:xlink="http://www.w3.org/1999/xlink" x="0px" y="0px" viewBox="0 0 40 39"
	 style="enable-background:new 0 0 40 39;" xml:space="preserve">
<style type="text/css">
	.st0{fill-rule:evenodd;clip-rule:evenodd;fill:#261300;}
	.st1{fill-rule:evenodd;clip-rule:evenodd;fill:#FF7C00;}
</style>
<g>
	<rect x="1.6" y="1.6" class="st0" width="36.7" height="35.7"/>
</g>
<g>
	<path class="st1" d="M0,0v39h40V0C40,0,0,0,0,0z M1.6,1.7h36.7v35.7H1.6V1.7z"/>
</g>
<path class="st1" d="M14.3,23.8l-1.3,5c0,0.1-0.1,0.2-0.2,0.2h-2.5c-0.2,0-0.2-0.1-0.2-0.2l4.7-16.6c0.1-0.3,0.1-0.6,0.2-1.4
	c0-0.1,0.1-0.2,0.1-0.2h3.5c0.1,0,0.2,0,0.2,0.2l5.3,18c0,0.1,0,0.2-0.1,0.2h-2.7c-0.1,0-0.2,0-0.2-0.1l-1.4-5L14.3,23.8L14.3,23.8z
	 M18.9,21c-0.4-1.9-1.5-5.9-2-7.9l0,0c-0.4,2-1.2,5.2-1.9,7.8h3.9V21z M26.4,11.8c0-1.1,0.7-1.7,1.7-1.7s1.7,0.7,1.7,1.7
	c0,1.1-0.7,1.7-1.7,1.7S26.4,12.8,26.4,11.8z M26.6,15.5c0-0.1,0.1-0.2,0.2-0.2h2.6c0.1,0,0.2,0.1,0.2,0.2v13.2c0,0.1,0,0.2-0.2,0.2
	h-2.6c-0.2,0-0.2-0.1-0.2-0.2C26.6,28.7,26.6,15.5,26.6,15.5z"/>
</svg>
