<?xml version="1.0" encoding="utf-8"?>
<!-- Generator: Adobe Illustrator 24.2.0, SVG Export Plug-In . SVG Version: 6.00 Build 0)  -->
<svg version="1.1" id="圖層_1" xmlns="http://www.w3.org/2000/svg" xmlns:xlink="http://www.w3.org/1999/xlink" x="0px" y="0px"
	 viewBox="0 0 40 40" style="enable-background:new 0 0 40 40;" xml:space="preserve">
<style type="text/css">
	.st0{fill:#563D7C;}
	.st1{fill:#FFFFFF;}
</style>
<g>
	<path class="st0" d="M0,34.8C0,37.7,2.3,40,5.2,40h29.7c2.8,0,5.2-2.3,5.2-5.2V5.2C40,2.3,37.7,0,34.8,0H5.2C2.3,0,0,2.3,0,5.2
		V34.8L0,34.8z"/>
	<path class="st1" d="M16.6,17.7V12h5c0.5,0,0.9,0,1.4,0.1c0.4,0.1,0.8,0.2,1.2,0.4c0.3,0.2,0.6,0.5,0.8,0.8
		c0.2,0.4,0.3,0.8,0.3,1.4c0,1-0.3,1.8-0.9,2.2c-0.6,0.5-1.4,0.7-2.3,0.7L16.6,17.7L16.6,17.7z M11.3,7.9v24.2H23
		c1.1,0,2.1-0.1,3.2-0.4c1-0.3,1.9-0.7,2.7-1.3c0.8-0.6,1.4-1.3,1.9-2.2c0.5-0.9,0.7-2,0.7-3.2c0-1.5-0.4-2.8-1.1-3.9
		c-0.7-1.1-1.8-1.8-3.3-2.3c1.1-0.5,1.9-1.2,2.5-2c0.6-0.8,0.8-1.8,0.8-3.1c0-1.1-0.2-2.1-0.6-2.8c-0.4-0.8-0.9-1.4-1.6-1.8
		c-0.7-0.5-1.5-0.8-2.4-1c-0.9-0.2-2-0.3-3.2-0.3L11.3,7.9L11.3,7.9z M16.6,28v-6.6h5.8c1.2,0,2.1,0.3,2.8,0.8
		c0.7,0.5,1.1,1.4,1.1,2.7c0,0.6-0.1,1.2-0.3,1.6c-0.2,0.4-0.5,0.7-0.9,1c-0.4,0.2-0.8,0.4-1.3,0.5c-0.5,0.1-1,0.2-1.5,0.2H16.6
		L16.6,28z"/>
</g>
</svg>
