<?xml version="1.0" encoding="utf-8"?>
<!-- Generator: Adobe Illustrator 24.2.0, SVG Export Plug-In . SVG Version: 6.00 Build 0)  -->
<svg version="1.1" id="圖層_1" xmlns="http://www.w3.org/2000/svg" xmlns:xlink="http://www.w3.org/1999/xlink" x="0px" y="0px"
	 viewBox="0 0 40 40" style="enable-background:new 0 0 40 40;" xml:space="preserve">
<style type="text/css">
	.st0{fill:#470137;}
	.st1{fill:#FF61F6;}
</style>
<g id="Layer_2">
	<g id="Surfaces">
		<g id="UI_UX_Surface">
			<g id="Outline_no_shadow">
				<path class="st0" d="M7.1,0.5h25.8c3.9,0,7.1,3.2,7.1,7.1v24.8c0,3.9-3.2,7.1-7.1,7.1H7.1c-3.9,0-7.1-3.2-7.1-7.1V7.6
					C0,3.7,3.2,0.5,7.1,0.5z"/>
			</g>
		</g>
	</g>
	<g id="Outlined_Mnemonics_Logos">
		<g id="Dw">
			<path class="st1" d="M3.8,27.8V10.7c0-0.1,0.1-0.2,0.2-0.2c0,0,0,0,0,0c0.3,0,0.6,0,1.1,0c0.5,0,1.1,0,1.7,0c0.7,0,1.4,0,2.1,0
				c2,0,3.7,0.4,5.1,1.1c1.3,0.7,2.3,1.7,3,3c0.7,1.3,1,2.8,1,4.4c0,1.2-0.2,2.3-0.5,3.4c-0.3,0.9-0.8,1.8-1.4,2.6
				c-0.6,0.7-1.3,1.3-2.1,1.8c-0.8,0.5-1.6,0.8-2.4,1C10.8,28,9.9,28.1,9,28.1H7.1c-0.7,0-1.3,0-1.9,0c-0.6,0-1,0-1.3,0
				C3.8,28.1,3.8,28,3.8,27.8z M7.3,13.7v11.1c0.2,0,0.4,0,0.5,0c0.2,0,0.3,0,0.5,0c0.2,0,0.3,0,0.5,0c0.8,0,1.5-0.1,2.3-0.4
				c0.7-0.2,1.3-0.6,1.7-1.1c0.5-0.5,0.9-1.2,1.1-1.9c0.3-0.8,0.4-1.6,0.4-2.5c0-0.8-0.1-1.6-0.4-2.3c-0.5-1.3-1.5-2.3-2.8-2.7
				c-0.7-0.2-1.5-0.3-2.2-0.3c-0.3,0-0.6,0-0.9,0C7.9,13.7,7.6,13.7,7.3,13.7L7.3,13.7z"/>
			<path class="st1" d="M33,28.1h-3.1c-0.1,0-0.1,0-0.2-0.1c0-0.1-0.1-0.1-0.1-0.2c-0.3-1.3-0.6-2.5-0.8-3.6c-0.2-1-0.4-1.9-0.5-2.6
				c-0.1-0.7-0.3-1.3-0.3-1.8c-0.1-0.5-0.2-0.9-0.2-1.3h0c-0.2,0.7-0.3,1.4-0.5,2.1c-0.1,0.7-0.3,1.4-0.5,2.1
				c-0.2,0.7-0.4,1.5-0.6,2.3c-0.2,0.8-0.4,1.8-0.7,2.7c0,0.2-0.1,0.3-0.3,0.3h-3.1c-0.1,0-0.2,0-0.2-0.1c-0.1-0.1-0.1-0.1-0.1-0.2
				l-3.2-12.9c0-0.1,0-0.2,0.2-0.2h3.1c0.1,0,0.2,0.1,0.2,0.2c0.3,1.5,0.6,2.7,0.8,3.8c0.2,1.1,0.4,2,0.5,2.7
				c0.1,0.8,0.2,1.4,0.3,1.8c0.1,0.5,0.1,0.9,0.2,1.2h0c0-0.3,0.1-0.5,0.1-0.8c0.1-0.3,0.1-0.7,0.2-1.2c0.1-0.5,0.2-1.1,0.4-1.8
				c0.1-0.7,0.3-1.5,0.5-2.4c0.2-0.9,0.4-2,0.8-3.2c0-0.1,0-0.1,0.1-0.2c0,0,0.1-0.1,0.2-0.1h3.3c0.1,0,0.2,0.1,0.2,0.2
				c0.3,1.2,0.5,2.3,0.7,3.2c0.2,0.9,0.4,1.7,0.5,2.4c0.1,0.7,0.2,1.3,0.3,1.8c0.1,0.5,0.1,0.9,0.2,1.3c0.1,0.3,0.1,0.6,0.1,0.8h0
				c0.1-0.3,0.2-0.7,0.2-1.2c0.1-0.4,0.2-1,0.3-1.5c0.1-0.6,0.2-1.2,0.3-1.9c0.1-0.7,0.3-1.4,0.5-2.3c0.2-0.8,0.4-1.8,0.6-2.7
				c0-0.1,0.1-0.2,0.2-0.2h2.9c0.1,0,0.2,0.1,0.2,0.2l-3.6,12.9c0,0.1-0.1,0.1-0.1,0.2C33.1,28.1,33,28.1,33,28.1z"/>
		</g>
	</g>
</g>
</svg>
