<?xml version="1.0" encoding="utf-8"?>
<!-- Generator: Adobe Illustrator 24.2.1, SVG Export Plug-In . SVG Version: 6.00 Build 0)  -->
<svg version="1.1" id="Capa_1" xmlns="http://www.w3.org/2000/svg" xmlns:xlink="http://www.w3.org/1999/xlink" x="0px" y="0px"
	 viewBox="0 0 30 30" style="enable-background:new 0 0 30 30;" xml:space="preserve">
<style type="text/css">
	.st0{fill:#2196F3;}
	.st1{fill:#FAFAFA;}
</style>
<path class="st0" d="M15,0C6.9-0.2,0.2,6.3,0,14.4c0,4.1,1.8,8,5,10.7v4.3C5,29.7,5.3,30,5.6,30c0.1,0,0.2,0,0.3-0.1l3.5-2.2
	c1.8,0.7,3.7,1,5.6,1c8.1,0.2,14.8-6.3,15-14.4C29.8,6.3,23.1-0.2,15,0z"/>
<path class="st1" d="M24.9,10.2c-0.2-0.2-0.5-0.3-0.8-0.2l-6.5,3.5l-4-3.5c-0.2-0.2-0.6-0.2-0.8,0l-7.5,7.5c-0.2,0.2-0.2,0.6,0,0.9
	c0.2,0.2,0.5,0.2,0.7,0.1l6.5-3.5l4,3.5c0.2,0.2,0.6,0.2,0.8,0l7.5-7.5C25,10.8,25.1,10.5,24.9,10.2z"/>
</svg>
