<?xml version="1.0" encoding="utf-8"?>
<!-- Generator: Adobe Illustrator 24.2.0, SVG Export Plug-In . SVG Version: 6.00 Build 0)  -->
<svg version="1.1" id="圖層_1" xmlns="http://www.w3.org/2000/svg" xmlns:xlink="http://www.w3.org/1999/xlink" x="0px" y="0px"
	 viewBox="0 0 28.4 40" style="enable-background:new 0 0 28.4 40;" xml:space="preserve">
<style type="text/css">
	.st0{fill:#E44D26;}
	.st1{fill:#F16529;}
	.st2{fill:#EBEBEB;}
	.st3{fill:#FFFFFF;}
</style>
<g>
	<polygon class="st0" points="2.6,36.8 0,7.9 28.4,7.9 25.8,36.8 14.2,40 	"/>
	<polygon class="st1" points="14.2,37.5 23.6,34.9 25.8,10.2 14.2,10.2 	"/>
	<polygon class="st2" points="14.2,21 9.5,21 9.2,17.3 14.2,17.3 14.2,13.8 14.2,13.8 5.3,13.8 5.4,14.7 6.3,24.5 14.2,24.5 	"/>
	<polygon class="st2" points="14.2,30.2 14.2,30.2 10.2,29.1 10,26.3 8.1,26.3 6.4,26.3 6.9,31.8 14.2,33.9 14.2,33.9 	"/>
	<path d="M2.7,0h1.8v1.8h1.6V0h1.8v5.4H6.1V3.6H4.5v1.8H2.7V0L2.7,0z"/>
	<path d="M10.3,1.8H8.7V0h5v1.8h-1.6v3.6h-1.8V1.8L10.3,1.8z"/>
	<path d="M14.5,0h1.9l1.2,1.9L18.7,0h1.9v5.4h-1.8V2.7l-1.2,1.9l0,0l-1.4-1.9v2.7h-1.8L14.5,0L14.5,0z"/>
	<path d="M21.4,0h1.8v3.6h2.5v1.8h-4.3V0z"/>
	<polygon class="st3" points="14.2,21 14.2,24.5 18.6,24.5 18.1,29.1 14.2,30.2 14.2,33.9 21.5,31.8 21.5,31.2 22.3,21.9 22.4,21 
		21.5,21 	"/>
	<polygon class="st3" points="14.2,13.8 14.2,16 14.2,17.3 14.2,17.3 22.7,17.3 22.7,17.3 22.8,17.3 22.8,16.5 23,14.7 23.1,13.8 	
		"/>
</g>
</svg>
