<?xml version="1.0" encoding="utf-8"?>
<!-- Generator: Adobe Illustrator 24.2.0, SVG Export Plug-In . SVG Version: 6.00 Build 0)  -->
<svg version="1.1" id="Id_x5F_app_x5F_RGB.svg" xmlns="http://www.w3.org/2000/svg" xmlns:xlink="http://www.w3.org/1999/xlink"
	 x="0px" y="0px" viewBox="0 0 40 39" style="enable-background:new 0 0 40 39;" xml:space="preserve">
<style type="text/css">
	.st0{fill-rule:evenodd;clip-rule:evenodd;fill:#2E0013;}
	.st1{fill-rule:evenodd;clip-rule:evenodd;fill:#FF3F94;}
</style>
<g>
	<rect x="1.6" y="1.6" class="st0" width="36.7" height="35.7"/>
</g>
<g>
	<path class="st1" d="M0,0v39h40V0C40,0,0,0,0,0z M1.7,1.7h36.7v35.7H1.7V1.7z"/>
</g>
<path class="st1" d="M14.5,28.3c0,0.2,0,0.2-0.2,0.2h-2.6c-0.2,0-0.2-0.1-0.2-0.2V10.4c0-0.2,0.1-0.2,0.2-0.2h2.6
	c0.1,0,0.2,0.1,0.2,0.2C14.5,10.4,14.5,28.3,14.5,28.3z M17.5,21.9c0-4,2.6-7.1,6.8-7.1c0.4,0,0.6,0,0.9,0v-4.4
	c0-0.1,0.1-0.2,0.2-0.2h2.7c0.1,0,0.2,0.1,0.2,0.1v15.6c0,0.5,0,1,0.1,1.7c0,0.1,0,0.1-0.1,0.2c-1.4,0.7-2.9,1-4.4,1
	C20.1,28.8,17.5,26.5,17.5,21.9z M25.2,17.5c-0.2-0.1-0.6-0.2-1-0.2c-2.1,0-3.6,1.6-3.6,4.4c0,3.1,1.5,4.4,3.5,4.4
	c0.4,0,0.9-0.1,1.2-0.2v-8.4H25.2z"/>
</svg>
