<?xml version="1.0" encoding="utf-8"?>
<!-- Generator: Adobe Illustrator 24.2.0, SVG Export Plug-In . SVG Version: 6.00 Build 0)  -->
<svg version="1.1" id="圖層_1" xmlns="http://www.w3.org/2000/svg" xmlns:xlink="http://www.w3.org/1999/xlink" x="0px" y="0px"
	 viewBox="0 0 40 40" style="enable-background:new 0 0 40 40;" xml:space="preserve">
<style type="text/css">
	.st0{fill-rule:evenodd;clip-rule:evenodd;fill:#1A1918;}
	.st1{fill-rule:evenodd;clip-rule:evenodd;fill:#21609B;}
</style>
<g>
	<g>
		<path class="st0" d="M37.9,27.1l2.1,0c0,0-3.9,5.3-4.2,5.7c-0.1,0.1-0.3,0.3-0.3,0.5c-0.2,0.5-0.4,1.5-0.4,1.5l-1.9,0
			c0,0,0.3-1.1,0.3-1.6c0-0.5-0.3-1-0.4-1.5c-0.1-0.5-0.3-1.5-0.3-1.5h2l0.3,1.1L37.9,27.1"/>
		<path class="st0" d="M33.9,28.2c0.4,0.2,0.6,1.5,0.6,1.5s-2,0-3.1,0h-1l-1.2,5h-1.8c0,0,1.1-5.5,1.4-6.5c0.1-0.3,0.6-0.3,1.4-0.3
			h1.3C32.5,28.1,33.5,28,33.9,28.2 M25.7,30.7c0,0,0.1-0.3-0.2-0.7c-0.2-0.3-0.4-0.4-0.9-0.4c-1.5,0-1.5,1.1-1.5,1.1L25.7,30.7z
			 M27.4,29.4c0.2,0.8-0.2,2.7-0.2,2.7s-2.2,0-3.5,0c-0.4,0-0.8,0-1,0.1c-0.2,0.2,0.1,0.6,0.2,0.8c0.2,0.2,0.6,0.2,0.8,0.2
			c1,0.1,3.1,0,3.1,0l-0.4,1.6c0,0-2.9,0.1-4.4-0.2c-0.3-0.1-0.6-0.2-0.7-0.4c-0.1-0.1-0.1-0.1-0.1-0.2c0-0.1-0.1-0.2-0.2-0.4
			c-0.3-0.9,0-2.6,0.4-3.5c0-0.1,0.1-0.2,0.2-0.4c0.1-0.1,0.1-0.3,0.2-0.4c0-0.1,0.1-0.1,0.1-0.2c0-0.1,0.1-0.1,0.1-0.2
			c0.1-0.2,0.3-0.3,0.5-0.4c0.6-0.5,1.7-0.8,3.1-0.7c0.5,0.1,1.3,0.2,1.6,0.7C27.3,28.9,27.3,29.2,27.4,29.4L27.4,29.4z M19.3,28.1
			l1.7,0c0,0-1,4.5-1.4,6.7h-2c-1.4,0-2.6,0.2-3.1-0.8c-0.5-1,0-2.5,0.2-3.6c0.2-0.8,0.5-2.3,0.5-2.3l1.8,0c0,0-0.5,2.4-0.7,3.6
			c-0.1,0.4-0.2,0.8-0.1,1.2c0.2,0.3,0.4,0.3,1,0.3c0.2,0,0.9,0,0.9,0L19.3,28.1 M11.3,31.3c0.2-0.6,0.4-1.3,0.4-1.9
			c0-0.6-0.6-1.2-0.9-1.3c-1-0.4-1.9,0.1-2.3,0.5c-0.5,0.5-0.6,1.1-0.8,2c-0.1,0.6-0.2,1.3,0,1.8c0.4,0.9,1.7,0.7,3.1,0.7
			C10.9,32.5,11.1,31.9,11.3,31.3L11.3,31.3z M13.6,28.8c0.2,1.4-0.6,3-1.1,4.4c0.5,0,1,0,1,0c0,0.1-0.4,1.6-0.5,1.6
			c-0.4,0-1.8,0-2.4,0c-1.9,0-3.7,0.1-4.6-0.8c-0.4-0.4-0.6-1-0.7-1.5c-0.1-0.8,0-1.6,0.2-2.3c0.2-0.6,0.4-1.2,0.7-1.8
			c0.8-1.4,2.2-2.4,4.5-2.2c0.4,0,1.1,0.2,1.5,0.5c0,0,0.1,0.1,0.1,0.1C13,27.2,13.5,28.1,13.6,28.8L13.6,28.8z M5.3,28.1
			c-0.1,0.5-0.2,1.1-0.3,1.6H3.1c0.1-0.6,0.3-1.1,0.4-1.6C4.1,28.1,4.6,28.1,5.3,28.1 M3,30.2h1.8c-0.2,1.3-0.7,3.5-1.1,5
			c-0.2,0.9-0.4,1.6-1,2.1c-0.1,0-0.1,0-0.1,0.1c-0.1,0.1-0.7,0.2-1,0.3c-0.5,0.1-1,0-1.6,0c0.2-0.6,0.3-1.3,0.5-1.8
			C1.9,36,2,34.6,2.2,33.3C2.4,32.5,2.9,30.5,3,30.2"/>
	</g>
	<g>
		<path class="st1" d="M30.4,18.4l-0.1,0.3c-1.7,3.2-4.6,5.2-8.8,5.3c-2,0-3.8-0.5-5-1c-2.6-1.2-4.8-3.4-6.1-5.7
			c-1.7-3.4-2-8,1.6-11.5c0.1,0-0.4,0.8-0.4,0.8l-0.1,0.3c-2.6,8.1,5.4,15.1,13.2,14.3C26.5,20.9,28.9,19.9,30.4,18.4"/>
		<path class="st1" d="M25.7,15c2,0,4-0.9,5.2-2.2c-1.1,2.7-4.1,4.4-8.2,3.9c-3.4-0.5-6.7-3.9-7.1-7.4c-0.2-2.5,0.6-4,2.1-5.9
			c-0.5,1-0.7,1.7-0.7,2.2C16.4,11.1,21.3,15,25.7,15"/>
		<path class="st1" d="M30.7,8.2c-0.3,0.7-2.1,2-2.8,2.2c-3.1,0.7-5-0.8-6.1-2.5c-0.2-0.2-0.4-0.9-0.5-1.1c-0.4-1.4-0.2-3.4,1-4.5
			c-0.4,1-0.4,2.2-0.2,2.9c0.1,0.5,0.5,1.3,0.8,1.8c0.6,0.9,1,1.1,1.9,1.6c0.4,0.2,0.8,0.4,0.9,0.4C26.4,9.4,28,10,30.7,8.2"/>
	</g>
</g>
</svg>
