<?xml version="1.0" encoding="utf-8"?>
<!-- Generator: Adobe Illustrator 24.2.0, SVG Export Plug-In . SVG Version: 6.00 Build 0)  -->
<svg version="1.1" id="圖層_1" xmlns="http://www.w3.org/2000/svg" xmlns:xlink="http://www.w3.org/1999/xlink" x="0px" y="0px"
	 viewBox="0 0 40 40" style="enable-background:new 0 0 40 40;" xml:space="preserve">
<style type="text/css">
	.st0{fill:#F7DF1E;}
</style>
<g>
	<path class="st0" d="M0,0h40v40H0V0z"/>
	<path d="M10.5,33.4l3.1-1.9c0.6,1,1.1,1.9,2.4,1.9c1.2,0,2-0.5,2-2.4V18.4h3.8v12.8c0,3.9-2.3,5.7-5.6,5.7
		C13.1,36.9,11.4,35.3,10.5,33.4 M23.8,33l3.1-1.8c0.8,1.3,1.9,2.3,3.7,2.3c1.6,0,2.6-0.8,2.6-1.9c0-1.3-1-1.7-2.7-2.5l-0.9-0.4
		c-2.7-1.2-4.5-2.6-4.5-5.7c0-2.8,2.1-5,5.5-5c2.4,0,4.1,0.8,5.3,3L32.9,23c-0.6-1.2-1.3-1.6-2.4-1.6c-1.1,0-1.8,0.7-1.8,1.6
		c0,1.1,0.7,1.6,2.3,2.3l0.9,0.4c3.2,1.4,5,2.8,5,5.9c0,3.4-2.7,5.2-6.2,5.2C27.2,36.9,24.9,35.2,23.8,33"/>
</g>
</svg>
