<?xml version="1.0" encoding="utf-8"?>
<!-- Generator: Adobe Illustrator 24.2.0, SVG Export Plug-In . SVG Version: 6.00 Build 0)  -->
<svg version="1.1" id="ps_x5F_cc_x5F_app_x5F_RGB.svg"
	 xmlns="http://www.w3.org/2000/svg" xmlns:xlink="http://www.w3.org/1999/xlink" x="0px" y="0px" viewBox="0 0 40 39"
	 style="enable-background:new 0 0 40 39;" xml:space="preserve">
<style type="text/css">
	.st0{fill-rule:evenodd;clip-rule:evenodd;fill:#001D26;}
	.st1{fill-rule:evenodd;clip-rule:evenodd;fill:#00C8FF;}
</style>
<g>
	<rect x="1.7" y="1.7" class="st0" width="36.7" height="35.7"/>
</g>
<g>
	<path class="st1" d="M0,0v39h40V0H0z M1.7,1.7h36.7v35.7H1.7V1.7z"/>
</g>
<path class="st1" d="M9.5,10.5c0-0.1,0.2-0.2,0.4-0.2c1.1-0.1,2.6-0.1,4.3-0.1c4.6,0,6.4,2.5,6.4,5.8c0,4.2-3.1,6.1-6.8,6.1
	c-0.6,0-0.9,0-1.3,0v6.4c0,0.1-0.1,0.2-0.2,0.2H9.7c-0.1,0-0.2-0.1-0.2-0.2V10.5z M12.4,19.3c0.4,0,0.7,0,1.3,0c2,0,3.8-0.7,3.8-3.3
	c0-2.1-1.3-3.2-3.5-3.2c-0.7,0-1.3,0-1.6,0.1V19.3z M26.8,17.3c-1.3,0-1.8,0.7-1.8,1.2c0,0.6,0.3,1,2.1,1.9c2.6,1.3,3.4,2.5,3.4,4.3
	c0,2.7-2,4.1-4.8,4.1c-1.5,0-2.7-0.3-3.4-0.7c-0.1-0.1-0.1-0.1-0.1-0.3v-2.4c0-0.2,0.1-0.2,0.2-0.1c1,0.7,2.3,1,3.4,1
	c1.3,0,1.9-0.6,1.9-1.3c0-0.6-0.4-1.1-2.1-2c-2.4-1.1-3.4-2.3-3.4-4.2c0-2.1,1.7-3.9,4.6-3.9c1.4,0,2.4,0.2,3,0.5
	c0.1,0.1,0.2,0.2,0.2,0.3V18c0,0.1-0.1,0.2-0.2,0.2C28.9,17.6,27.9,17.3,26.8,17.3z"/>
</svg>
