<?xml version="1.0" encoding="utf-8"?>
<!-- Generator: Adobe Illustrator 24.2.0, SVG Export Plug-In . SVG Version: 6.00 Build 0)  -->
<svg version="1.1" id="圖層_1" xmlns="http://www.w3.org/2000/svg" xmlns:xlink="http://www.w3.org/1999/xlink" x="0px" y="0px"
	 viewBox="0 0 28.2 40" style="enable-background:new 0 0 28.2 40;" xml:space="preserve">
<style type="text/css">
	.st0{fill:#0B9C88;}
	.st1{fill:#68C2B9;}
	.st2{fill:#FFFFFF;}
</style>
<g>
	<g>
		<path d="M5.1,5.4V0h2.8c0.5,0,0.9,0,1.2,0.1c0.3,0.1,0.5,0.3,0.7,0.5c0.2,0.2,0.3,0.5,0.3,0.9c0,0.3-0.1,0.6-0.2,0.8
			C9.8,2.5,9.6,2.7,9.4,2.8C9.1,2.9,8.9,3,8.7,3C8.9,3.1,9,3.1,9.1,3.2c0.1,0,0.2,0.1,0.3,0.3c0.1,0.1,0.2,0.3,0.2,0.3l0.8,1.6H8.5
			L7.6,3.7C7.5,3.5,7.4,3.3,7.3,3.3C7.2,3.2,7,3.2,6.9,3.2H6.8v2.2H5.1L5.1,5.4z M6.8,2.2h0.7c0.1,0,0.2,0,0.4-0.1
			C8,2.1,8.1,2,8.2,1.9s0.1-0.2,0.1-0.3c0-0.2-0.1-0.3-0.2-0.4C8,1.1,7.8,1.1,7.5,1.1H6.8C6.8,1.1,6.8,2.2,6.8,2.2z"/>
		<path d="M10.4,0H12l0.6,3l0.8-3H15l0.8,3l0.6-3H18l-1.2,5.4h-1.6l-1-3.4l-1,3.4h-1.6L10.4,0z"/>
		<path d="M18.6,0h2.5c0.5,0,0.9,0.1,1.2,0.2c0.3,0.1,0.6,0.3,0.8,0.6c0.2,0.2,0.3,0.5,0.4,0.9c0.1,0.3,0.1,0.7,0.1,1.1
			c0,0.6-0.1,1-0.2,1.4c-0.1,0.3-0.3,0.6-0.6,0.8c-0.2,0.2-0.5,0.4-0.8,0.4c-0.4,0.1-0.7,0.1-1,0.1h-2.5L18.6,0L18.6,0z M20.3,1.2v3
			h0.4c0.4,0,0.6,0,0.8-0.1c0.1-0.1,0.3-0.2,0.3-0.4c0.1-0.2,0.1-0.5,0.1-0.9c0-0.6-0.1-1-0.3-1.2c-0.2-0.2-0.5-0.3-0.9-0.3
			L20.3,1.2L20.3,1.2z"/>
	</g>
	<polygon class="st0" points="0,7.9 2.6,36.3 14.2,40 25.3,36.4 28.2,7.9 	"/>
	<polygon class="st1" points="14.1,10.1 25.4,10.1 23.5,34.6 14.1,37.3 	"/>
	<path class="st2" d="M22.5,13.4H5l1.5,18.1l3.7,0.9L9.4,24h6.2l0.8,8.5l4.3-1.2l-1.3-7.1l2.4-0.1L22.5,13.4z M19,20.5H8.7v-3.6H19
		L19,20.5L19,20.5z"/>
</g>
</svg>
