<?xml version="1.0" encoding="utf-8"?>
<!-- Generator: Adobe Illustrator 24.2.0, SVG Export Plug-In . SVG Version: 6.00 Build 0)  -->
<svg version="1.1" id="圖層_1" xmlns="http://www.w3.org/2000/svg" xmlns:xlink="http://www.w3.org/1999/xlink" x="0px" y="0px"
	 viewBox="0 0 40 40" style="enable-background:new 0 0 40 40;" xml:space="preserve">
<g>
	<g>
		<path d="M34.8,18.7c0.1-0.6,0.2-1.1,0.2-1.7c0-5.8-4.7-10.4-10.4-10.4c-3.1,0-5.9,1.3-7.8,3.5c-1.1-0.6-2.4-0.9-3.6-0.9
			c-4,0-7.3,2.9-7.9,6.8C2,17.4,0,20.6,0,24.2c0,5.1,4.2,9.2,9.3,9.2h23c4.2,0,7.6-3.4,7.7-7.5C40,22.6,37.9,19.7,34.8,18.7
			L34.8,18.7z M32.3,31.7h-23c-4.2,0-7.6-3.4-7.6-7.5c0-3.1,1.8-5.8,4.6-6.9c0.3-0.1,0.5-0.3,0.5-0.7c0.3-3.3,2.9-5.8,6.2-5.8
			c1.3,0,2.4,0.3,3.6,0.8c0.3,0.3,0.8,0.2,1.1-0.2c1.6-2.1,4.2-3.4,6.9-3.4c4.8,0,8.8,3.9,8.8,8.7c0,0.7-0.1,1.4-0.3,2.1
			c-0.2,0.8,0.3,1,0.6,1.1c2.7,0.6,4.6,3,4.6,5.8C38.2,29.1,35.6,31.7,32.3,31.7z"/>
		<path d="M12.3,18.1c0.9,0,1.7,0.8,1.7,1.7c0,0.3,0.3,0.6,0.6,0.6c0.3,0,0.6-0.3,0.6-0.6c0-1.6-1.3-2.8-2.8-2.8
			c-1.6,0-2.8,1.3-2.8,2.8c0,1.6,1.3,2.8,2.8,2.8c0.9,0,1.7,0.8,1.7,1.7S13.2,26,12.3,26s-1.7-0.8-1.7-1.7c0-0.3-0.3-0.6-0.6-0.6
			S9.4,24,9.4,24.3c0,1.6,1.3,2.8,2.8,2.8c1.6,0,2.8-1.3,2.8-2.8c0-1.6-1.3-2.8-2.8-2.8c-0.9,0-1.7-0.8-1.7-1.7S11.3,18.1,12.3,18.1
			L12.3,18.1z"/>
		<path d="M21.6,18.1c0.3,0,0.6-0.3,0.6-0.6s-0.3-0.6-0.6-0.6H17c-0.3,0-0.6,0.3-0.6,0.6v9.1c0,0.3,0.3,0.6,0.6,0.6h4.6
			c0.3,0,0.6-0.3,0.6-0.6c0-0.3-0.3-0.6-0.6-0.6h-4v-3.4h4c0.3,0,0.6-0.3,0.6-0.6c0-0.3-0.3-0.6-0.6-0.6h-4v-3.4H21.6z"/>
		<path d="M26.8,16.9c-1.1,0-2,0.6-2.8,1.6c-0.7,1-1.1,2.2-1.1,3.6c0,1.3,0.4,2.6,1.1,3.6c0.7,1,1.7,1.6,2.8,1.6s2-0.6,2.8-1.6
			c0.7-1,1.1-2.2,1.1-3.6c0-1.3-0.4-2.6-1.1-3.6C28.8,17.5,27.8,16.9,26.8,16.9z M26.8,26c-1.5,0-2.7-1.8-2.7-4c0-2.2,1.2-4,2.7-4
			c1.5,0,2.7,1.8,2.7,4S28.2,26,26.8,26z"/>
	</g>
</g>
</svg>
