<?xml version="1.0" encoding="utf-8"?>
<!-- Generator: Adobe Illustrator 24.2.0, SVG Export Plug-In . SVG Version: 6.00 Build 0)  -->
<svg version="1.1" id="圖層_1" xmlns:sketch="http://www.bohemiancoding.com/sketch/ns"
	 xmlns="http://www.w3.org/2000/svg" xmlns:xlink="http://www.w3.org/1999/xlink" x="0px" y="0px" viewBox="0 0 37.3 40"
	 style="enable-background:new 0 0 37.3 40;" xml:space="preserve">
<style type="text/css">
	.st0{fill-rule:evenodd;clip-rule:evenodd;fill:#FFFFFF;}
	.st1{fill-rule:evenodd;clip-rule:evenodd;fill:#FF0014;}
</style>
<path id="Stroke-24863" sketch:type="MSShapeGroup" class="st0" d="M0.1,3.2L24.5,0l12.6,9.8l-2.7,22.9L8.6,40l-5-15.7L0.1,3.2
	L0.1,3.2z"/>
<path id="Fill-24864" sketch:type="MSShapeGroup" class="st1" d="M8.6,40l-5-15.7L0,3.2L24.6,0l12.7,9.8l-2.7,22.9L8.6,40
	 M34.2,10.4L24,2.4L2.7,5.2l1.4,3.3l15.4-2.2l5.6,5.7L34.2,10.4 M5.2,15l1.4,3.8l7.9-1.5l2,3.5L25,19l-5.3-6.5L5.2,15 M7.7,25.8
	l1.4,4l7.9-1.9l-1.9-3.8L7.7,25.8"/>
</svg>
