<?xml version="1.0" encoding="utf-8"?>
<!-- Generator: Adobe Illustrator 24.2.1, SVG Export Plug-In . SVG Version: 6.00 Build 0)  -->
<svg version="1.1" id="Capa_1" xmlns="http://www.w3.org/2000/svg" xmlns:xlink="http://www.w3.org/1999/xlink" x="0px" y="0px"
	 viewBox="0 0 30 31.9" style="enable-background:new 0 0 30 31.9;" xml:space="preserve">
<style type="text/css">
	.st0{fill:#26B99A;}
</style>
<g>
	<path class="st0" d="M8.8,13.1H1.5L13.7,0.9l12.2,12.2h-7.3c0,0-2.6,10.7,9.8,18c0,0-9.4,1.8-16.3-6.4C12.1,24.7,8.5,21.1,8.8,13.1
		z"/>
	<path class="st0" d="M26,31.9c-3.3,0-9.5-0.9-14.4-6.8c-0.1-0.1-3.5-3.7-3.4-11.4H0L13.7,0l13.7,13.7h-8.3
		c-0.3,2.1-0.9,10.7,9.6,16.9l1.4,0.8l-1.6,0.3C28.4,31.7,27.5,31.9,26,31.9z M2.9,12.5h6.5l0,0.6c-0.2,7.7,3.1,11.2,3.1,11.2
		c4.9,5.9,11.1,6.5,14,6.4C15.6,23.2,18,13,18,12.9l0.1-0.5h6.3L13.7,1.7L2.9,12.5z"/>
</g>
</svg>
