<?xml version="1.0" encoding="utf-8"?>
<!-- Generator: Adobe Illustrator 24.2.0, SVG Export Plug-In . SVG Version: 6.00 Build 0)  -->
<svg version="1.1" id="Capa_1" xmlns="http://www.w3.org/2000/svg" xmlns:xlink="http://www.w3.org/1999/xlink" x="0px" y="0px"
	 viewBox="0 0 36 36" style="enable-background:new 0 0 36 36;" xml:space="preserve">
<style type="text/css">
	.st0{opacity:0.75;fill:#FFFFFF;}
	.st1{fill:#2D2D2D;}
	.st2{fill:#FFFFFF;}
</style>
<g>
	<circle class="st0" cx="16.2" cy="16.1" r="11.3"/>
	<g>
		<path class="st1" d="M31.4,28.8L26,23.3c1.5-2,2.4-4.5,2.4-7.2C28.3,9.4,22.8,4,16.2,4S4,9.4,4,16.2s5.4,12.2,12.2,12.2
			c2.7,0,5.1-0.9,7.2-2.4l5.5,5.5l0,0c0.7,0.7,1.9,0.7,2.7,0C32.2,30.7,32.2,29.5,31.4,28.8z M16.2,27.1c-6.1,0-11-4.9-11-11
			c0-6.1,4.9-11,11-11c6.1,0,11,4.9,11,11C27.1,22.2,22.2,27.1,16.2,27.1z"/>
	</g>
	<g>
		<path class="st2" d="M19.4,15.2h-2.3v-2.3c0-0.4-0.3-0.8-0.8-0.8H16c-0.4,0-0.8,0.3-0.8,0.8v2.3h-2.3c-0.4,0-0.8,0.3-0.8,0.8v0.4
			c0,0.4,0.3,0.8,0.8,0.8h2.3v2.3c0,0.4,0.3,0.8,0.8,0.8h0.4c0.4,0,0.8-0.3,0.8-0.8v-2.3h2.3c0.4,0,0.8-0.3,0.8-0.8V16
			C20.2,15.5,19.9,15.2,19.4,15.2z"/>
	</g>
</g>
</svg>
