<?xml version="1.0" encoding="utf-8"?>
<!-- Generator: Adobe Illustrator 24.2.0, SVG Export Plug-In . SVG Version: 6.00 Build 0)  -->
<svg version="1.1" id="圖層_1" xmlns="http://www.w3.org/2000/svg" xmlns:xlink="http://www.w3.org/1999/xlink" x="0px" y="0px"
	 viewBox="0 0 40 40" style="enable-background:new 0 0 40 40;" xml:space="preserve">
<style type="text/css">
	.st0{fill:#0065A9;}
	.st1{fill:#007ACC;}
	.st2{fill:#1F9CF0;}
	.st3{opacity:0.25;}
	.st4{fill-rule:evenodd;clip-rule:evenodd;fill:url(#SVGID_1_);}
</style>
<g>
	<path class="st0" d="M38.6,4.4l-8.3-4c-1-0.5-2.1-0.3-2.9,0.5L0.5,25.5c-0.7,0.7-0.7,1.8,0,2.5l2.2,2c0.6,0.5,1.5,0.6,2.1,0.1
		L37.2,5.5c1.1-0.8,2.7,0,2.7,1.3V6.7C40,5.7,39.4,4.8,38.6,4.4z"/>
	<g>
		<path class="st1" d="M38.6,35.7l-8.3,4c-1,0.5-2.1,0.3-2.9-0.5L0.5,14.6c-0.7-0.7-0.7-1.8,0-2.5l2.2-2C3.3,9.6,4.2,9.5,4.8,10
			l32.4,24.6c1.1,0.8,2.7,0,2.7-1.3v0.1C40,34.4,39.4,35.3,38.6,35.7z"/>
	</g>
	<g>
		<path class="st2" d="M30.4,39.7c-1,0.5-2.1,0.3-2.9-0.5c0.9,0.9,2.5,0.3,2.5-1V1.9c0-1.3-1.6-2-2.5-1c0.7-0.7,1.9-1,2.9-0.5l8.3,4
			C39.5,4.8,40,5.7,40,6.7v26.8c0,1-0.6,1.8-1.4,2.3L30.4,39.7z"/>
	</g>
	<g class="st3">
		
			<linearGradient id="SVGID_1_" gradientUnits="userSpaceOnUse" x1="20.0497" y1="-689.5289" x2="20.0497" y2="-729.3013" gradientTransform="matrix(1 0 0 -1 0 -689.3795)">
			<stop  offset="0" style="stop-color:#FFFFFF"/>
			<stop  offset="1" style="stop-color:#FFFFFF;stop-opacity:0"/>
		</linearGradient>
		<path class="st4" d="M28.4,39.8c0.6,0.2,1.3,0.2,2-0.1l8.3-4c0.9-0.4,1.4-1.3,1.4-2.3V6.6c0-1-0.6-1.8-1.4-2.3l-8.3-4
			c-0.9-0.4-1.8-0.3-2.6,0.2c-0.1,0.1-0.2,0.2-0.3,0.2L11.8,15.2L4.9,10c-0.6-0.5-1.5-0.5-2.1,0.1l-2.2,2c-0.7,0.7-0.7,1.8,0,2.5
			l6,5.5l-6,5.5c-0.7,0.7-0.7,1.8,0,2.5l2.2,2c0.6,0.5,1.5,0.6,2.1,0.1l6.9-5.2l15.7,14.3C27.7,39.4,28.1,39.6,28.4,39.8z M30,10.9
			L18,20L30,29V10.9z"/>
	</g>
</g>
</svg>
