<?xml version="1.0" encoding="utf-8"?>
<!-- Generator: Adobe Illustrator 24.2.0, SVG Export Plug-In . SVG Version: 6.00 Build 0)  -->
<svg version="1.1" id="圖層_1" xmlns="http://www.w3.org/2000/svg" xmlns:xlink="http://www.w3.org/1999/xlink" x="0px" y="0px"
	 viewBox="0 0 40 40" style="enable-background:new 0 0 40 40;" xml:space="preserve">
<style type="text/css">
	.st0{clip-path:url(#SVGID_2_);}
	.st1{fill:#00749A;}
	.st2{fill:#464342;}
</style>
<g>
	<defs>
		<rect id="SVGID_1_" y="0" width="40" height="40"/>
	</defs>
	<clipPath id="SVGID_2_">
		<use xlink:href="#SVGID_1_"  style="overflow:visible;"/>
	</clipPath>
	<g class="st0">
		<path class="st1" d="M102.2,15.7h-6.9v0.7c2.2,0,2.5,0.5,2.5,3.2v5c0,2.8-0.3,3.3-2.5,3.3c-1.7-0.2-2.8-1.1-4.3-2.8l-1.8-1.9
			c2.4-0.4,3.7-1.9,3.7-3.6c0-2.1-1.8-3.8-5.2-3.8h-6.8v0.7c2.2,0,2.5,0.5,2.5,3.2v5c0,2.8-0.3,3.3-2.5,3.3v0.7h7.7v-0.7
			c-2.2,0-2.5-0.5-2.5-3.3v-1.4h0.7l4.3,5.4h11.3c5.5,0,7.9-2.9,7.9-6.5C110.2,18.7,107.8,15.7,102.2,15.7L102.2,15.7z M86,22.1
			v-5.2h1.6c1.7,0,2.5,1.2,2.5,2.6c0,1.4-0.8,2.6-2.5,2.6L86,22.1z M102.4,27.5h-0.3c-1.4,0-1.6-0.3-1.6-2.1v-8.4h1.9
			c4,0,4.8,2.9,4.8,5.2C107.1,24.5,106.4,27.5,102.4,27.5z M59.2,23.5l2.7-7.9c0.8-2.3,0.4-2.9-2.1-2.9v-0.8h7.3v0.8
			c-2.4,0-3,0.6-4,3.4l-4.4,13.3h-0.5l-4-12.1l-4,12.1h-0.5l-4.3-13.3c-0.9-2.8-1.6-3.4-3.8-3.4v-0.8h8.6v0.8
			c-2.3,0-2.9,0.5-2.1,2.9l2.6,7.9l3.9-11.6h0.7L59.2,23.5L59.2,23.5z M72.4,29.2c-4.3,0-7.8-3.1-7.8-7c0-3.8,3.5-6.9,7.8-6.9
			s7.8,3.1,7.8,6.9C80.1,26,76.7,29.2,72.4,29.2z M72.4,16.4c-3.6,0-4.8,3.2-4.8,5.7c0,2.6,1.2,5.7,4.8,5.7c3.6,0,4.8-3.2,4.8-5.7
			C77.2,19.7,76,16.4,72.4,16.4L72.4,16.4z"/>
		<path class="st2" d="M119.8,27.9v0.8h-8.9v-0.8c2.6,0,3.1-0.7,3.1-4.5v-6.2c0-3.9-0.5-4.5-3.1-4.5v-0.8h8c4,0,6.2,2.1,6.2,4.8
			c0,2.7-2.2,4.8-6.2,4.8h-2.2v1.9C116.7,27.2,117.2,27.9,119.8,27.9L119.8,27.9z M118.9,13.3h-2.2V20h2.2c2.2,0,3.2-1.5,3.2-3.3
			C122.1,14.8,121.1,13.3,118.9,13.3z M151.8,25l-0.2,0.7c-0.3,1.3-0.8,1.7-3.5,1.7h-0.5c-2,0-2.4-0.5-2.4-3.2v-1.8
			c3,0,3.3,0.3,3.3,2.3h0.7V19h-0.7c0,2-0.2,2.3-3.3,2.3v-4.3h2.1c2.8,0,3.2,0.5,3.5,1.7l0.2,0.7h0.6l-0.3-3.6h-11.4v0.7
			c2.2,0,2.5,0.5,2.5,3.2v5c0,2.5-0.3,3.2-2,3.2c-1.6-0.2-2.7-1.1-4.3-2.8l-1.8-1.9c2.4-0.4,3.7-1.9,3.7-3.6c0-2.1-1.8-3.8-5.2-3.8
			H126v0.7c2.2,0,2.5,0.5,2.5,3.2v5c0,2.8-0.3,3.3-2.5,3.3v0.7h7.7v-0.7c-2.2,0-2.5-0.5-2.5-3.3v-1.4h0.7l4.3,5.4h15.9l0.2-3.6
			L151.8,25L151.8,25z M131.2,22.1v-5.2h1.6c1.7,0,2.5,1.2,2.5,2.6c0,1.4-0.8,2.6-2.5,2.6L131.2,22.1z M159.6,29.2
			c-1.6,0-2.9-0.8-3.5-1.3c-0.2,0.2-0.5,0.8-0.6,1.3h-0.7v-5.3h0.8c0.3,2.6,2.1,4.1,4.4,4.1c1.2,0,2.2-0.7,2.2-1.9
			c0-1-0.9-1.8-2.5-2.5l-2.2-1c-1.6-0.7-2.7-2-2.7-3.7c0-1.9,1.7-3.5,4.1-3.5c1.3,0,2.4,0.5,3,1c0.2-0.2,0.4-0.6,0.5-1h0.7v4.6h-0.8
			c-0.3-1.8-1.3-3.3-3.3-3.3c-1.1,0-2.1,0.6-2.1,1.6c0,1,0.8,1.6,2.7,2.4l2.1,1c1.9,0.9,2.6,2.3,2.6,3.5
			C164.4,27.5,162.2,29.2,159.6,29.2L159.6,29.2z M171.6,29.2c-1.6,0-2.9-0.8-3.5-1.3c-0.2,0.2-0.5,0.8-0.6,1.3h-0.7v-5.3h0.8
			c0.3,2.6,2.1,4.1,4.4,4.1c1.2,0,2.2-0.7,2.2-1.9c0-1-0.9-1.8-2.5-2.5l-2.2-1c-1.6-0.7-2.7-2-2.7-3.7c0-1.9,1.7-3.5,4.1-3.5
			c1.3,0,2.4,0.5,3,1c0.2-0.2,0.4-0.6,0.5-1h0.7v4.6h-0.8c-0.3-1.8-1.3-3.3-3.3-3.3c-1.1,0-2.1,0.6-2.1,1.6c0,1,0.8,1.6,2.7,2.4
			l2.1,1c1.9,0.9,2.6,2.3,2.6,3.5C176.3,27.5,174.2,29.2,171.6,29.2L171.6,29.2z"/>
		<g>
			<path class="st1" d="M2.8,20c0,6.8,3.9,12.7,9.7,15.4L4.3,13C3.3,15.2,2.8,17.6,2.8,20L2.8,20z M31.6,19.1c0-2.1-0.8-3.6-1.4-4.7
				c-0.9-1.4-1.7-2.6-1.7-4c0-1.6,1.2-3,2.9-3c0.1,0,0.1,0,0.2,0C28.5,4.6,24.5,2.8,20,2.8c-6,0-11.3,3.1-14.3,7.7
				c0.4,0,0.8,0,1.1,0c1.8,0,4.6-0.2,4.6-0.2c0.9-0.1,1,1.3,0.1,1.4c0,0-0.9,0.1-2,0.2l6.2,18.6l3.8-11.3L16.8,12
				c-0.9-0.1-1.8-0.2-1.8-0.2c-0.9-0.1-0.8-1.5,0.1-1.4c0,0,2.8,0.2,4.5,0.2c1.8,0,4.6-0.2,4.6-0.2c0.9-0.1,1,1.3,0.1,1.4
				c0,0-0.9,0.1-2,0.2l6.2,18.4l1.7-5.7C31,22.3,31.6,20.6,31.6,19.1L31.6,19.1z"/>
			<path class="st1" d="M20.3,21.5l-5.1,15c1.6,0.5,3.2,0.7,4.8,0.7c2,0,3.9-0.3,5.7-1c0-0.1-0.1-0.2-0.1-0.2L20.3,21.5z M35.1,11.8
				c0.1,0.5,0.1,1.1,0.1,1.8c0,1.7-0.3,3.7-1.3,6.1l-5.2,15.2c5.1-3,8.5-8.5,8.5-14.8C37.2,17.1,36.4,14.3,35.1,11.8L35.1,11.8z"/>
			<path class="st1" d="M20,0C9,0,0,9,0,20c0,11,9,20,20,20c11,0,20-9,20-20C40,9,31,0,20,0z M20,39.1C9.5,39.1,0.9,30.5,0.9,20
				C0.9,9.5,9.5,0.9,20,0.9c10.5,0,19.1,8.6,19.1,19.1C39.1,30.5,30.5,39.1,20,39.1L20,39.1z"/>
		</g>
	</g>
</g>
</svg>
